<mxfile host="65bd71144e">
    <diagram id="wSVGPF-au6xzpEUmSwqf" name="Page-1">
        <mxGraphModel dx="1208" dy="1719" grid="1" gridSize="10" guides="1" tooltips="1" connect="1" arrows="1" fold="1" page="1" pageScale="1" pageWidth="827" pageHeight="1169" background="#ffffff" math="0" shadow="0">
            <root>
                <mxCell id="0"/>
                <mxCell id="1" parent="0"/>
                <mxCell id="s2qQgoGiGuIIVXWOqtOG-7" value="Public subnet" style="points=[[0,0],[0.25,0],[0.5,0],[0.75,0],[1,0],[1,0.25],[1,0.5],[1,0.75],[1,1],[0.75,1],[0.5,1],[0.25,1],[0,1],[0,0.75],[0,0.5],[0,0.25]];outlineConnect=0;gradientColor=none;html=1;whiteSpace=wrap;fontSize=12;fontStyle=0;container=1;pointerEvents=0;collapsible=0;recursiveResize=0;shape=mxgraph.aws4.group;grIcon=mxgraph.aws4.group_security_group;grStroke=0;strokeColor=#248814;fillColor=#E9F3E6;verticalAlign=top;align=left;spacingLeft=30;fontColor=#248814;dashed=0;" parent="1" vertex="1">
                    <mxGeometry x="340" y="110" width="130" height="130" as="geometry"/>
                </mxCell>
                <mxCell id="s2qQgoGiGuIIVXWOqtOG-10" value="" style="sketch=0;points=[[0,0,0],[0.25,0,0],[0.5,0,0],[0.75,0,0],[1,0,0],[0,1,0],[0.25,1,0],[0.5,1,0],[0.75,1,0],[1,1,0],[0,0.25,0],[0,0.5,0],[0,0.75,0],[1,0.25,0],[1,0.5,0],[1,0.75,0]];outlineConnect=0;fontColor=#232F3E;gradientColor=#F78E04;gradientDirection=north;fillColor=#D05C17;strokeColor=#ffffff;dashed=0;verticalLabelPosition=bottom;verticalAlign=top;align=center;html=1;fontSize=12;fontStyle=0;aspect=fixed;shape=mxgraph.aws4.resourceIcon;resIcon=mxgraph.aws4.ec2;" parent="s2qQgoGiGuIIVXWOqtOG-7" vertex="1">
                    <mxGeometry x="26" y="40" width="78" height="78" as="geometry"/>
                </mxCell>
                <mxCell id="s2qQgoGiGuIIVXWOqtOG-8" value="Private subnet" style="points=[[0,0],[0.25,0],[0.5,0],[0.75,0],[1,0],[1,0.25],[1,0.5],[1,0.75],[1,1],[0.75,1],[0.5,1],[0.25,1],[0,1],[0,0.75],[0,0.5],[0,0.25]];outlineConnect=0;gradientColor=none;html=1;whiteSpace=wrap;fontSize=12;fontStyle=0;container=1;pointerEvents=0;collapsible=0;recursiveResize=0;shape=mxgraph.aws4.group;grIcon=mxgraph.aws4.group_security_group;grStroke=0;strokeColor=#147EBA;fillColor=#E6F2F8;verticalAlign=top;align=left;spacingLeft=30;fontColor=#147EBA;dashed=0;" parent="1" vertex="1">
                    <mxGeometry x="340" y="280" width="130" height="130" as="geometry"/>
                </mxCell>
                <mxCell id="s2qQgoGiGuIIVXWOqtOG-11" value="" style="sketch=0;outlineConnect=0;fontColor=#232F3E;gradientColor=none;fillColor=#2E27AD;strokeColor=none;dashed=0;verticalLabelPosition=bottom;verticalAlign=top;align=center;html=1;fontSize=12;fontStyle=0;aspect=fixed;pointerEvents=1;shape=mxgraph.aws4.rds_instance;" parent="s2qQgoGiGuIIVXWOqtOG-8" vertex="1">
                    <mxGeometry x="26" y="40" width="78" height="78" as="geometry"/>
                </mxCell>
                <mxCell id="s2qQgoGiGuIIVXWOqtOG-12" value="" style="rounded=1;arcSize=10;dashed=1;strokeColor=#F59D56;fillColor=none;gradientColor=none;dashPattern=8 4;strokeWidth=2;" parent="1" vertex="1">
                    <mxGeometry x="320" y="80" width="170" height="360" as="geometry"/>
                </mxCell>
                <mxCell id="s2qQgoGiGuIIVXWOqtOG-13" value="VPC" style="points=[[0,0],[0.25,0],[0.5,0],[0.75,0],[1,0],[1,0.25],[1,0.5],[1,0.75],[1,1],[0.75,1],[0.5,1],[0.25,1],[0,1],[0,0.75],[0,0.5],[0,0.25]];outlineConnect=0;gradientColor=none;html=1;whiteSpace=wrap;fontSize=12;fontStyle=0;container=1;pointerEvents=0;collapsible=0;recursiveResize=0;shape=mxgraph.aws4.group;grIcon=mxgraph.aws4.group_vpc;strokeColor=#248814;fillColor=none;verticalAlign=top;align=left;spacingLeft=30;fontColor=#AAB7B8;dashed=0;" parent="1" vertex="1">
                    <mxGeometry x="230" y="-10" width="350" height="490" as="geometry"/>
                </mxCell>
                <mxCell id="s2qQgoGiGuIIVXWOqtOG-4" value="" style="sketch=0;outlineConnect=0;fontColor=#232F3E;gradientColor=none;fillColor=#4D27AA;strokeColor=none;dashed=0;verticalLabelPosition=bottom;verticalAlign=top;align=center;html=1;fontSize=12;fontStyle=0;aspect=fixed;pointerEvents=1;shape=mxgraph.aws4.internet_gateway;" parent="s2qQgoGiGuIIVXWOqtOG-13" vertex="1">
                    <mxGeometry x="148" y="-30" width="54" height="54" as="geometry"/>
                </mxCell>
                <mxCell id="s2qQgoGiGuIIVXWOqtOG-14" value="Region" style="sketch=0;outlineConnect=0;gradientColor=none;html=1;whiteSpace=wrap;fontSize=12;fontStyle=0;shape=mxgraph.aws4.group;grIcon=mxgraph.aws4.group_region;strokeColor=#879196;fillColor=none;verticalAlign=top;align=left;spacingLeft=30;fontColor=#879196;dashed=1;" parent="1" vertex="1">
                    <mxGeometry x="170" y="-70" width="480" height="610" as="geometry"/>
                </mxCell>
                <mxCell id="s2qQgoGiGuIIVXWOqtOG-17" style="edgeStyle=none;rounded=0;orthogonalLoop=1;jettySize=auto;html=1;entryX=0.49;entryY=0.049;entryDx=0;entryDy=0;entryPerimeter=0;startArrow=blockThin;startFill=1;endArrow=blockThin;endFill=1;" parent="1" source="s2qQgoGiGuIIVXWOqtOG-15" target="s2qQgoGiGuIIVXWOqtOG-14" edge="1">
                    <mxGeometry relative="1" as="geometry">
                        <Array as="points">
                            <mxPoint x="405" y="-110"/>
                        </Array>
                    </mxGeometry>
                </mxCell>
                <mxCell id="2" style="edgeStyle=none;html=1;strokeColor=#000000;startArrow=block;startFill=1;" edge="1" parent="1" source="s2qQgoGiGuIIVXWOqtOG-15">
                    <mxGeometry relative="1" as="geometry">
                        <mxPoint x="405" y="-40" as="targetPoint"/>
                    </mxGeometry>
                </mxCell>
                <mxCell id="s2qQgoGiGuIIVXWOqtOG-15" value="Users" style="sketch=0;outlineConnect=0;fontColor=#232F3E;gradientColor=none;strokeColor=#232F3E;fillColor=#ffffff;dashed=0;verticalLabelPosition=bottom;verticalAlign=top;align=center;html=1;fontSize=12;fontStyle=0;aspect=fixed;shape=mxgraph.aws4.resourceIcon;resIcon=mxgraph.aws4.users;" parent="1" vertex="1">
                    <mxGeometry x="375" y="-220" width="60" height="60" as="geometry"/>
                </mxCell>
                <mxCell id="s2qQgoGiGuIIVXWOqtOG-18" style="edgeStyle=none;rounded=0;orthogonalLoop=1;jettySize=auto;html=1;startArrow=blockThin;startFill=1;endArrow=blockThin;endFill=1;" parent="1" edge="1">
                    <mxGeometry relative="1" as="geometry">
                        <mxPoint x="404.66999999999996" y="20" as="sourcePoint"/>
                        <mxPoint x="405" y="150" as="targetPoint"/>
                        <Array as="points"/>
                    </mxGeometry>
                </mxCell>
                <mxCell id="3" style="edgeStyle=none;html=1;strokeColor=#000000;startArrow=block;startFill=1;" edge="1" parent="1">
                    <mxGeometry relative="1" as="geometry">
                        <mxPoint x="404.5" y="120" as="targetPoint"/>
                        <mxPoint x="404.5" as="sourcePoint"/>
                    </mxGeometry>
                </mxCell>
            </root>
        </mxGraphModel>
    </diagram>
</mxfile>